<svg width="1360" height="1500" fill="none" xmlns="http://www.w3.org/2000/svg"><path d="M1396 0H426C315.543 0 226 89.543 226 200v1300h1170V0Z" fill="#FDEDE8"/><path d="M1124.64 668.85c65.46-71.411 89.26-215.719 0-235.556-132.365-29.415-66.95 74.386-391.768 19.836-201.244-33.796-185.965 166.128-74.386 277.708 111.58 111.579 384.324 27.275 466.154-61.988Z" fill="#FCDDD4"/><mask id="a" style="mask-type:alpha" maskUnits="userSpaceOnUse" x="577" y="427" width="606" height="358"><path d="M1124.64 668.849c65.46-71.411 89.26-215.718 0-235.555-132.365-29.415-66.95 74.385-391.768 19.836-201.244-33.796-185.965 166.128-74.386 277.707 111.58 111.58 384.324 27.275 466.154-61.988Z" fill="#FCDDD4"/></mask><g mask="url(#a)"><path opacity=".7" d="M534.51 636.019c32.463-42.212 118.445-124.527 202.674-116.084 105.285 10.553-94.757 208.424 0 208.424 94.756 0 139.502-242.722 207.938-242.722 68.438 0-76.332 179.403 0 189.956 76.328 10.553 139.498-253.275 223.728-255.913 84.23-2.638-86.86 216.339 50.01 216.339" stroke="url(#b)" stroke-width="2"/><path d="M1257.97 733.861c0 27.531-15.84 49.774-35.33 49.774h-35.33c-19.49 0-35.15-22.426-35.15-49.774 0-27.531 15.84-49.775 35.33-49.775h35.15c19.67 0 35.33 22.426 35.33 49.775Z" fill="#402B2B"/><path d="M981.135 733.314c0 27.531-15.846 49.774-35.334 49.774h-35.334c-19.488 0-35.151-22.426-35.151-49.774 0-27.531 15.845-49.775 35.333-49.775h35.152c19.67 0 35.334 22.244 35.334 49.775Z" fill="#F48767"/><path d="m1260.34 729.121-142.24-.365 16.39-9.663 107.64.182 18.21 9.846Z" fill="#402B2B"/><path d="m1394.57 647.987-.18 91.344-115.47-.182-36.79-19.873-107.64-.183-33.15 19.691-234.952-.547a6.921 6.921 0 0 1-6.921-6.928l.182-84.416 534.921 1.094Z" fill="#F36F49"/><path d="m1142.86 668.771-184.315-.364.365-167.191c0-6.746 5.464-12.216 12.385-12.216l172.115.365-.55 179.406Z" fill="#F48767"/><path d="m1430.27 669.501-287.22-.547.36-179.407 275.02.547c6.74 0 12.2 5.47 12.2 12.398l-.36 167.009Z" fill="#F06A5B"/><path d="M1004.45 733.314c0 27.531 15.66 49.774 35.15 49.774h35.15v-16.774c12.93 0 23.49-14.768 23.49-33 0-18.233-10.38-33.001-23.31-33.001v-16.774h-35.15c-19.49.183-35.15 22.426-35.33 49.775Z" fill="#F48767"/><path d="M1103.89 733.679c0 22.608-12.93 40.841-28.96 40.658-16.03 0-28.78-18.232-28.78-40.84 0-22.608 12.93-40.841 28.96-40.658 15.85 0 28.78 18.232 28.78 40.84Z" fill="#F48767"/><path d="M1074.93 760.48c-10.56 0-18.94-12.034-18.94-26.984 0-14.951 8.56-26.802 19.12-26.802 10.57 0 18.95 12.033 18.95 26.984 0 14.951-8.56 26.802-19.13 26.802Zm0-42.846c-6.19 0-11.29 7.11-11.29 15.862 0 8.751 5.1 16.044 11.29 16.044 6.19 0 11.29-7.11 11.29-15.862 0-8.934-4.91-16.044-11.29-16.044Z" fill="#F7A58D"/><path d="M1074.93 783.271c-19.49 0-35.15-22.426-35.15-49.775 0-27.348 15.84-49.774 35.33-49.774s35.15 22.426 35.15 49.774c0 27.349-16.02 49.957-35.33 49.775Zm.18-90.433c-16.02 0-28.96 18.232-28.96 40.658 0 22.608 12.75 40.841 28.78 40.841s28.96-18.233 28.96-40.659c0-22.608-12.93-40.84-28.78-40.84Z" fill="#F7A58D"/><path d="M1079.85 733.496c0-3.829-2.19-6.746-4.74-6.746-2.55 0-4.73 3.1-4.92 6.746 0 3.829 2.19 6.746 4.74 6.746 2.73.183 4.92-2.917 4.92-6.746Z" fill="#5B2929"/><path d="M836.52 597.119c0 .729-.546 1.276-1.093 1.458-1.457.365-6.921.365-8.56-.182-.729-.182-1.457-.729-1.457-1.641-.546-14.586-.546-28.807 0-42.299 0-.912.728-1.459 1.457-1.641 1.821-.547 8.196-.912 10.199-.182.729.182 1.275.911 1.275 1.641a312.493 312.493 0 0 1-1.821 42.846Z" fill="#F69276"/><path d="M845.443 610.063c-.182 0-.364 0-.729-.182l-12.385-6.199a8.506 8.506 0 0 1-4.735-7.658l.182-45.763a3.267 3.267 0 0 1 3.278-3.282h34.059c.911 0 1.457.729 1.457 1.459 0 .911-.728 1.458-1.457 1.458h-34.059c-.182 0-.182.182-.182.182l-.182 45.764c0 2.188 1.275 4.011 3.096 4.923l12.385 6.199c.729.364 1.093 1.276.729 2.005-.364.912-.911 1.094-1.457 1.094Z" fill="#F69276"/><path d="M1118.09 668.406h-40.97c-21.68 0-26.78 10.757-40.07 37.194l-42.077-.182v-8.387l-160.641-.364c-.728-13.31-2.186-40.294-2.186-65.819v-2.553c0-7.293 1.275-15.315 3.461-23.337 8.56-31.36 30.234-64.725 39.159-76.941 2.914-4.011 5.464-7.475 7.649-10.575 6.193-8.204 10.382-12.398 18.213-12.398l194.702.547c4.01 0 7.65 2.735 8.74 6.564 16.76 61.625 14.21 108.482 14.02 156.251ZM953.993 527.288c.182-.912-.546-1.641-1.457-1.641l-59.193-.183c-3.46 0-6.921 1.824-9.107 4.923-23.13 31.542-32.419 60.349-35.88 76.941l-3.642 17.503c-.547 2.552 1.092 4.558 3.642 4.558h14.389c2.367 0 4.917-1.094 6.739-2.917l29.505-28.26c3.279-3.1 7.65-4.923 11.839-4.923h35.334l7.831-66.001Z" fill="#F36F49"/><path d="M984.594 605.505c-1.275 5.835-2.732 11.852-4.007 18.233-.911 4.376-4.736 7.475-9.107 7.658-57.554 2.005-105.273 2.187-139.331-.365v-2.553c0-7.293 1.275-15.315 3.46-23.337l148.985.364Z" fill="#F6977C"/><path d="m1090.96 525.83-59.19-.183c-3.46 0-6.56 1.823-8.2 4.923-16.57 31.542-20.03 60.349-20.03 76.941v17.503c0 2.552 2 4.558 4.55 4.558h14.39c2.37 0 4.73-1.094 6.19-2.917l23.68-28.261c2.73-3.099 6.55-5.105 10.74-4.922h35.34l-5.65-66.002c0-.911-.73-1.64-1.82-1.64Z" fill="#F36F49"/><path d="M1118.09 668.406h-40.97c-21.68 0-26.78 10.757-40.07 37.194l-42.077-.182v-8.387l-160.641-.364c-.728-13.31-2.186-40.294-2.186-65.819 34.059 2.552 81.96 2.552 139.332.364 4.371-.182 8.196-3.282 9.107-7.657 1.275-6.382 2.732-12.581 4.007-18.233 7.831-33.365 16.388-57.249 27.688-83.139.91-2.006-.55-4.376-2.74-4.376l-127.125-.365c6.193-8.204 10.382-12.398 18.213-12.398l194.702.547c4.01 0 7.65 2.735 8.74 6.564 16.76 61.625 14.21 108.482 14.02 156.251Zm-19.48-74.935-5.65-66.001c0-.912-.91-1.641-1.82-1.641l-59.19-.182c-3.46 0-6.56 1.823-8.2 4.923-16.57 31.542-20.03 60.349-20.03 76.94v17.503c0 2.553 2 4.558 4.55 4.558h14.39c2.37 0 4.73-1.094 6.19-2.917l23.68-28.26c2.73-3.1 6.55-5.105 10.74-4.923h35.34Z" fill="#F7A58D"/><path d="M1110.99 663.666c0 2.735-2.18 4.741-4.91 4.741h-28.96c-21.68 0-26.78 10.757-40.07 37.194l-42.075-.182v-8.387l.182-73.841c0-36.648 6.553-59.803 23.863-96.45 2.55-5.469 8.19-8.934 14.2-8.934l62.66.183c1.45 0 2.55.911 2.91 2.188 12.39 47.039 12.39 123.615 12.2 143.488Zm-12.38-70.194-5.65-66.001c0-.912-.91-1.641-1.82-1.641l-59.19-.183c-3.46 0-6.56 1.824-8.2 4.923-16.57 31.542-20.03 60.349-20.03 76.941v17.503c0 2.552 2 4.558 4.55 4.558h14.39c2.37 0 4.73-1.094 6.19-2.917l23.68-28.261c2.73-3.099 6.56-5.105 10.75-4.922h35.33Z" fill="#F58A6B"/><path d="m1090.6 528.017-58.83-.182c-2.55 0-4.92 1.459-6.2 3.647-17.12 32.636-19.85 61.625-19.85 75.846v17.503c0 1.277 1.09 2.371 2.37 2.371h14.39c1.82 0 3.46-.73 4.55-2.006l23.68-28.26a16.46 16.46 0 0 1 12.57-5.834h32.78l-5.46-63.085Zm.36-2.187c.91 0 1.82.729 1.82 1.64l5.65 66.002h-35.34c-4.19 0-8.01 1.823-10.74 4.922l-23.68 28.261c-1.46 1.823-3.82 2.917-6.19 2.917h-14.39c-2.55 0-4.55-2.006-4.55-4.558v-17.503c0-16.592 3.46-45.399 20.03-76.941 1.64-3.1 4.74-4.923 8.2-4.923l59.19.183Z" fill="#F7A58D"/><path d="M995.155 662.208v34.823l-63.564-.182c.728-9.116 2.368-17.868 5.1-26.072 1.092-3.282 3.824-5.652 7.285-6.199 14.024-1.641 31.873-2.37 51.179-2.37Zm-128.586 34.641H835.06c-.546-7.657-1.092-20.056-1.639-34.094 7.65.364 14.753 1.093 21.128 2.005 3.46.547 6.192 2.917 7.285 6.199 2.55 8.022 4.007 16.774 4.735 25.89ZM994.974 732.038l-147.346-.365c-10.017 0-18.213-8.204-18.213-18.232v-3.1c0-2.917 2.368-5.105 5.1-5.105l160.276.365.183 26.437Z" fill="#F6977C"/><path d="M1022.11 732.038h-27.137v-26.437h41.707l-4.55 18.415c-1.09 4.74-5.28 8.022-10.02 8.022Z" fill="#F7A58D"/><path d="M1086.95 635.589c-6.19.182-18.21 1.459-18.21 5.834 0 4.376 10.56 5.835 19.12 5.835s9.47-4.741 10.2-6.746c.55-2.006 1.09-5.105-11.11-4.923Z" fill="#F6977C"/><path d="M1086.4 640.329c2.92 0 6.02-.911 7.47-2.37-1.09-.547-2.73-1.094-5.28-1.094-4.74 0-12.38.547-16.39 2.37.54.365 2 1.094 4.37 1.094h9.83ZM1074.2 643.794c-1.09 0-1.64.182-1.82.364 3.28 1.459 9.29 2.006 12.2 2.006 4.19 0 7.11 0 8.02-.912-.73-.547-2.37-1.458-4.01-1.458-2.19.182-12.93 0-14.39 0Z" fill="#F47B58"/><path d="M994.974 697.214v8.387l-160.095-.365s-.182-3.099-.546-8.387l160.641.365Z" fill="#F58A6B"/><path d="M925.944 660.384v34.824l-53.729-.182v-34.824c0-4.194 3.825-7.475 8.56-7.475h36.791c4.554.182 8.378 3.646 8.378 7.657Z" fill="#F16036" opacity=".2"/><path d="M854.184 693.932h-11.292c-2.914 0-5.464-2.37-5.464-5.47v-5.652c0-2.917 2.368-5.469 5.464-5.469h11.292c2.915 0 5.464 2.37 5.464 5.469v5.652c0 3.1-2.549 5.47-5.464 5.47ZM961.099 694.297h-11.292c-2.914 0-5.464-2.37-5.464-5.47v-5.652c0-2.917 2.368-5.469 5.464-5.469h11.292c2.915 0 5.464 2.37 5.464 5.469v5.652c0 2.918-2.367 5.47-5.464 5.47Z" fill="#fff"/><path d="M1033.95 597.483c0 .73-.54 1.277-1.09 1.459-7.1.729-14.57.729-22.22-.182-.91-.183-1.46-.73-1.46-1.641-.55-14.586-.55-28.807 0-42.299 0-.912.73-1.459 1.46-1.641 7.83-.912 15.66-.912 23.86 0 .73.182 1.27.911 1.27 1.641.55 13.674-.18 27.895-1.82 42.663Z" fill="#F7A58D"/><path d="M1005.72 610.428c-.54 0-1.09-.364-1.27-.911-.37-.729 0-1.641.73-2.006l12.38-6.016c1.82-.912 3.1-2.918 3.1-4.923l.18-45.764c0-.182-.18-.182-.18-.182h-7.65c-.91 0-1.46-.729-1.46-1.458 0-.912.73-1.459 1.46-1.459h7.65c1.82 0 3.28 1.459 3.28 3.282l-.19 45.763a8.509 8.509 0 0 1-4.73 7.658l-12.39 6.016h-.91Z" fill="#F69276"/><path d="m922.189 734.197-51.543-.112.033-15.498 51.544.112-.034 15.498Z" fill="#F8B4A0"/><path opacity=".6" d="M1012.63 522.734c-11.29 25.89-19.673 49.775-27.687 83.14l-148.984-.365c8.56-31.359 30.234-64.725 39.158-76.94 2.915-4.011 5.464-7.476 7.65-10.575l127.133.365c2.18.182 3.64 2.37 2.73 4.375Z" fill="url(#c)"/><path d="M771.305 540.535s-4.206 130.858-.115 277.968c0 0 12.272 11.631 35.524 3.877 0 0-.216-163.695 6.028-228.742 0 0 29.28 123.633 66.311 230.681 0 0 24.759 4.738 33.586-9.262 0 0-49.949-173.388-57.269-273.113l-84.065-1.409Z" fill="url(#d)"/><path d="M771.619 541.944h83.75c.646 7.538 1.292 15.508 2.368 23.693-49.948.215-76.429-12.493-86.333-18.308 0-3.662.215-5.385.215-5.385Z" fill="#402B2B" fill-opacity=".45" style="mix-blend-mode:multiply"/></g><path d="M780.021 325.045h20.668l2.799-12.493s-8.181 4.739-10.119 1.508c-1.937-3.231-1.507-1.938-3.444-1.508-1.938.431-1.938-2.153-4.306-.646-2.584 1.723-6.459 9.908-5.598 13.139Z" fill="#6B1912"/><path d="m739.632 481.023 11.778-28.515 33.118 12.414c-1.142 9.134-21.341 26.639-33.118 39.037l-11.778-22.936Z" fill="url(#e)"/><path d="M767.216 397.923s-18.135 32.891-28.764 81.242c-3.27 14.878-2.479 22.564 2.48 26.036 6.199 4.339 17.355.619 22.934-11.158 5.681-13.017 16.182-41.251 18.538-54.821 0 0-4.076-38.86-15.188-41.299Z" fill="url(#f)"/><path d="M767.104 397.415s1.077 24.769 4.306 143.88c0 0 29.28 14.861 87.625 4.523 0 0 .216-35.755 8.181-67.417 0 0 14.856-59.663 7.32-77.109 0 0-47.58-29.509-107.432-3.877Z" fill="url(#g)"/><path d="m812.315 373.808-.431 15.422s3.66 5.385 12.487 6.031c8.827.431 13.133-4.523 13.133-4.523l.861-22.961c-10.98 4.738-21.744 6.677-26.05 6.031Z" fill="url(#h)"/><path d="m813.177 367.476-.861 17.016c4.306.646 15.07-1.293 25.835-6.031l.646-10.985h-25.62Z" fill="url(#i)" style="mix-blend-mode:multiply"/><path d="M871.522 434.892s-12.702 28.647-17.224 41.57c-4.521 12.708-4.521 63.324-28.203 73.017 0 0 25.189-1.508 33.155-3.662 0 0 .431-38.124 8.181-67.417 0 0 5.383-30.8 7.536-44.8l-3.445 1.292Z" fill="#EE4D47" fill-opacity=".29" style="mix-blend-mode:multiply"/><path d="M854.729 330c-.43.215-.861 7.107-.861 7.107l-1.722 14.431-7.966 6.247-4.521 1.938s-6.674-2.8-5.813-5.385c.861-2.369 5.167-36.4 6.028-36.4.861 0 7.751 4.954 7.751 4.954l7.104 7.108ZM791.649 317.075c-1.938 0 1.076 23.693 1.076 23.693l3.445-9.477 2.368-11.416-6.889-2.8Z" fill="#402B2B"/><path d="m794.878 321.812-3.66 30.37s-1.292 25.632 19.807 27.139c21.099 1.293 35.524-19.6 35.524-19.6s2.583 3.015 5.382-2.154c2.583-5.169.861-12.062-2.799-12.708-3.875-.431-5.598 1.723-6.028 4.954-.431 3.231-.861 5.6-.861 5.6l-3.23-.431 2.368-24.985s-4.951-9.692-10.549-11.631c-5.598-1.938-10.549 5.816-10.549 5.816s-5.167 1.077-10.119 0-8.181-2.37-8.181-2.37-3.015.862-7.105 0Z" fill="url(#j)"/><path d="M810.977 497.76s-32.853-4.959-32.853-9.918 6.818-16.737 11.777-30.374 9.299-35.333 11.158-39.673c1.86-4.339-5.579 8.059-5.579 8.059-12.191 15.91-37.069 48.847-39.052 53.31-1.984 4.463-2.893 15.084-3.1 19.836l8.679 4.959 25.415-3.099 23.555-3.1Z" fill="#EE4D47" fill-opacity=".29" style="mix-blend-mode:multiply"/><path d="M800.38 366.345c0-2.479 2.527-6.185 6.819-4.959 4.339 1.24 5.372 4.959 5.579 7.439" stroke="#893D43"/><path d="M794.182 402.299s-53.929 69.446-55.169 80.585c-1.24 11.139-2.142 22.125 9.129 23.481 11.27 1.357 21.977-16.39 25.922-25.433l8.96-22.844 18.596-45.251-7.438-10.538Z" fill="url(#k)"/><path d="M801.679 417.175c0-6.199-7.439-8.678-13.638-8.678l-38.432 53.31c-7.852 10.951-21.324 36.201-7.439 44.632 13.886 8.43 29.341-13.018 34.714-24.176 2.975-6.943 17.77-46.285 24.795-65.088Z" fill="url(#l)"/><path d="M794.241 403.538s-3.788-14.722.236-24.301c0 0 2.196-4.284 4.564-2.443 2.637 1.698 4.709-2.174 7.346-.477 2.636 1.698 4.746-.813 7.359 2.452 0 0 2.973-.9 4.679 1.641 1.707 2.541 5.614 8.222 4.765 9.539-.849 1.318-3.731 7.869-4.475 8.094-.743.225-2.104.263-2.718-2.172 0 0-.067 2.454-1.352 5.214-1.08 2.822-4.594 6.257-4.594 6.257l-8.992 6.113-6.818-9.917Z" fill="url(#m)"/><path d="M817.051 314.06v-21.97c13.133.646 26.697 3.231 33.371 11.416 7.966 9.692 3.445 32.093 3.445 32.093s-9.689-1.077-11.411-4.308c-1.722-3.231-18.085-7.754-30.572-7.108-12.487.646-18.515-.646-24.759-6.031-1.292-1.077-2.368-2.585-3.229-4.308h33.155v.216Z" fill="#402B2B"/><path d="M855.374 327.414s-9.258-3.016-24.759-4.308c-26.051-10.985-37.246-9.046-37.246-9.046s.215-8.4 2.583-14.216c2.369-5.815 18.301-14 31.649-12.708 13.348 1.293 27.127 11.2 29.28 20.677 1.722 7.324-1.507 19.601-1.507 19.601Z" fill="url(#n)"/><path d="M839.658 324.186c-2.799-13.354-22.821-20.031-37.031-19.816-13.994.215-23.897 11.846-25.404 19.816-.646 3.231 1.937 3.661 2.799.861.645-1.938 1.937-11.2 14.855-10.123 12.918 1.077 12.272 12.708 18.731 13.785 6.028 1.077 12.917-3.231 26.05-4.523Z" fill="url(#o)"/><path d="m795.543 332.1-.671-1.35c.579-.288 4.726-3.07 10.699-4.595l.862 2.218c-5.106.853-10.89 3.727-10.89 3.727ZM832.193 337.767c-2.58-3.605-8.734-7.712-8.642-7.907l1.701-1.578c.194.092 5.673 4.117 8.365 8.491l-1.424.994Z" fill="#402B2B"/><path d="M811.241 339.907s-.646 4.523-2.368 5.815c-1.722 1.293-4.737 2.37-5.167 3.447-.431.861.43 2.584 2.368 3.231 1.938.646 2.153 1.292 2.153 1.292s-3.875.431-5.813-1.939c-1.938-2.369.215-4.307 2.153-5.384s2.799-1.508 3.66-2.154c1.077-.646 3.014-4.308 3.014-4.308Z" fill="#D87C60"/><path d="M820.496 342.274c0 2.154 1.507 4.092 3.445 4.092s3.445-1.723 3.445-4.092c0-2.154-1.507-4.093-3.445-4.093s-3.445 1.723-3.445 4.093ZM796.815 339.474c0 2.154 1.507 4.093 3.444 4.093 1.938 0 3.445-1.723 3.445-4.093 0-2.153-1.507-4.092-3.445-4.092-1.937.215-3.444 1.939-3.444 4.092Z" fill="#402B2B"/><path d="M785.136 507.68c-1.653-2.687-4.711-10.167-3.72-18.597 2.067 2.893 5.703 10.662 3.72 18.597Z" fill="#644545"/><path fill-rule="evenodd" clip-rule="evenodd" d="M860.111 497.571c15.717-22.832 17.869-91.971 17.869-91.971-14.461 1.88-21.368 16.195-25.805 25.392-2.168 4.494-3.747 7.766-5.329 7.766l-6.66 42.34-66.603 11.893-.165.23c-3.28.086-14.665.728-22.101 5.463 0 0-3.852 2.887-1.638 4.911 1.059 1.157.722 2.409.384 3.661-.337 1.252-.674 2.503.385 3.66.893.975 1.033 1.985 1.17 2.978.188 1.361.372 2.692 2.487 3.862 0 0-.386 3.082 2.406 4.336l.401.18c2.949 1.328 8.702 3.919 9.805 2.908.415-.38 1.45-1.131 2.61-1.974 2.074-1.507 4.552-3.306 4.614-3.8.096-.771-.096-2.119-2.6-2.314 0 0 2.408-.48 4.912-2.212 2.6-1.539 5.393-5.583 5.393-5.583l2.534-5.788c61.707 5.26 75.931-5.938 75.931-5.938Z" fill="url(#p)"/><path d="m842.027 437.263-6.029 31.662-2.704 7.969-52.071 12.189c1.447 2.686 4.216 10.166 3.72 18.597 11.571 1.239 43.764 1.363 65.088-3.1 5.728-1.1 12.397-6.819 20.845-27.686 19.161-65.909 3.66-75.601 3.66-75.601-21.529 2.8-32.509 35.97-32.509 35.97Z" fill="url(#q)"/><path d="M704.977 465.527s24.701 25.416 4.34 30.995c-20.362 5.579-39.627-10.836-65.662-6.387-44.632 7.626-117.919 17.544-157.592-56.842-49.59-92.983 79.827-130.176 145.053-130.176 78.247.001 109.1 33.474 116.539 79.346 5.951 36.697-26.561 71.906-42.678 83.064Z" fill="url(#r)"/><path d="m610.914 414.236 1.194-25.578c4.78-1.24 8.771-3.516 11.973-6.827 3.201-3.311 5.054-7.511 5.557-12.6.593-5.988-.022-10.785-1.846-14.392-1.813-3.706-4.339-5.72-7.577-6.04-2.846-.282-5.153.498-6.921 2.338-1.67 1.85-3.114 4.428-4.333 7.734l-2.625 6.995c-1.219 3.306-2.982 5.6-5.289 6.884-2.199 1.193-4.462 1.523-6.787.991-2.228-.523-4.087-1.765-5.577-3.726-1.481-2.062-2.064-4.689-1.747-7.882.395-3.992 2.158-7.294 5.291-9.907 3.23-2.602 7.182-4.479 11.854-5.628 4.672-1.15 9.462-1.483 14.369-.997 9.912.981 17.452 3.894 22.622 8.738 5.267 4.855 7.476 11.573 6.627 20.156-.583 5.887-2.5 10.736-5.751 14.546-3.251 3.81-7.262 6.789-12.033 8.937a65.1 65.1 0 0 1-14.415 4.468l-1.936 12.053-2.65-.263Zm-3.408 35.941c-3.533-.35-6.452-1.898-8.756-4.646-2.207-2.737-3.132-5.903-2.777-9.495.346-3.493 1.869-6.365 4.569-8.617 2.809-2.343 5.979-3.339 9.512-2.989 3.631.359 6.496 1.953 8.595 4.78 2.206 2.738 3.137 5.853 2.791 9.346-.356 3.593-1.884 6.515-4.584 8.767-2.602 2.262-5.719 3.213-9.35 2.854Z" fill="#fff"/><defs><linearGradient id="b" x1="876.686" y1="492.737" x2="876.686" y2="796.4" gradientUnits="userSpaceOnUse"><stop stop-color="#F37753"/><stop offset="1" stop-color="#fff" stop-opacity="0"/></linearGradient><linearGradient id="c" x1="943.128" y1="490.103" x2="871.756" y2="661.02" gradientUnits="userSpaceOnUse"><stop stop-color="#F7A58D"/><stop offset=".926" stop-color="#fff"/></linearGradient><linearGradient id="d" x1="841.058" y1="461.86" x2="841.058" y2="825.091" gradientUnits="userSpaceOnUse"><stop stop-color="#822626"/><stop offset=".943" stop-color="#402B2B"/></linearGradient><linearGradient id="e" x1="758.001" y1="456.358" x2="758.001" y2="512.997" gradientUnits="userSpaceOnUse"><stop stop-color="#FFB3B6"/><stop offset="1" stop-color="#FFC8C1"/></linearGradient><linearGradient id="f" x1="782.463" y1="402.92" x2="782.463" y2="514.499" gradientUnits="userSpaceOnUse"><stop stop-color="#F4A984"/><stop offset="1" stop-color="#EE4D47"/></linearGradient><linearGradient id="g" x1="821.887" y1="325.058" x2="821.887" y2="543.894" gradientUnits="userSpaceOnUse"><stop stop-color="#F4A984"/><stop offset="1" stop-color="#EE4D47"/></linearGradient><linearGradient id="h" x1="833.947" y1="388.119" x2="812.16" y2="397.516" gradientUnits="userSpaceOnUse"><stop stop-color="#FFB3B6"/><stop offset="1" stop-color="#FFC8C1"/></linearGradient><linearGradient id="i" x1="834.379" y1="377.313" x2="812.469" y2="386.591" gradientUnits="userSpaceOnUse"><stop stop-color="#FFB3B6" stop-opacity=".31"/><stop offset="1" stop-color="#FFC8C1"/></linearGradient><linearGradient id="j" x1="788.412" y1="371.947" x2="793.072" y2="330.304" gradientUnits="userSpaceOnUse"><stop stop-color="#FFB3B6"/><stop offset="1" stop-color="#FFC8C1"/></linearGradient><linearGradient id="k" x1="777.657" y1="377.503" x2="777.657" y2="504.367" gradientUnits="userSpaceOnUse"><stop stop-color="#FFB3B6"/><stop offset="1" stop-color="#FFC8C1"/></linearGradient><linearGradient id="l" x1="750.848" y1="434.532" x2="797.29" y2="502.753" gradientUnits="userSpaceOnUse"><stop stop-color="#F4A984"/><stop offset=".917" stop-color="#EE4D47"/></linearGradient><linearGradient id="m" x1="804.5" y1="401" x2="822" y2="371" gradientUnits="userSpaceOnUse"><stop stop-color="#FFB3B6"/><stop offset="1" stop-color="#FFC8C1"/></linearGradient><linearGradient id="n" x1="825.378" y1="265.298" x2="825.378" y2="327.924" gradientUnits="userSpaceOnUse"><stop stop-color="#F4A984"/><stop offset="1" stop-color="#EE4D47"/></linearGradient><linearGradient id="o" x1="827.015" y1="298.164" x2="827.015" y2="363.27" gradientUnits="userSpaceOnUse"><stop stop-color="#F4A984"/><stop offset="1" stop-color="#EE4D47"/></linearGradient><linearGradient id="p" x1="856.777" y1="465.577" x2="745.166" y2="502.78" gradientUnits="userSpaceOnUse"><stop stop-color="#FFB3B6"/><stop offset="1" stop-color="#FFC8C1"/></linearGradient><linearGradient id="q" x1="823.995" y1="440.112" x2="871.107" y2="511.399" gradientUnits="userSpaceOnUse"><stop stop-color="#F4A984"/><stop offset="1" stop-color="#EE4D47"/></linearGradient><linearGradient id="r" x1="514.673" y1="180.38" x2="743.334" y2="513.785" gradientUnits="userSpaceOnUse"><stop stop-color="#F4A984"/><stop offset="1" stop-color="#EE4D47"/></linearGradient></defs></svg>